<svg xmlns="http://www.w3.org/2000/svg" width="27.854" height="27.656" viewBox="0 0 27.854 27.656">
  <g id="add-post" transform="translate(-10 -8)">
    <path id="feed_FILL0_wght400_GRAD0_opsz48" d="M7.721,26.655A1.765,1.765,0,0,1,6,24.934V7.721A1.765,1.765,0,0,1,7.721,6H20.975l5.68,5.68V24.934a1.765,1.765,0,0,1-1.721,1.721Zm0-1.721H24.934V12.627H20.029V7.721H7.721Zm2.84-3.184H22.094V20.029H10.561Zm0-9.123h5.766V10.906H10.561Zm0,4.561H22.094V15.467H10.561ZM7.721,7.721v0Z" transform="translate(4 9)" fill="#fff"/>
    <g id="Group_27" data-name="Group 27" transform="translate(-381.859 -108.405)">
      <path id="Path_7" data-name="Path 7" d="M21.267,8.279h-2V-.1h2Z" transform="translate(395.269 116.5)" fill="#fff"/>
      <path id="Line_8" data-name="Line 8" d="M8.354,1H0V-1H8.354Z" transform="translate(411.359 120.602)" fill="#fff"/>
    </g>
  </g>
</svg>
