<svg xmlns="http://www.w3.org/2000/svg" width="30.174" height="15.087" viewBox="0 0 30.174 15.087">
  <path id="following" d="M0,27.087V25.421a2.243,2.243,0,0,1,1.32-1.98,6.786,6.786,0,0,1,3.395-.754q.409,0,.754.016a5.175,5.175,0,0,1,.691.079,5.118,5.118,0,0,0-.5,2.263v2.043Zm7.543,0V25.044a3.753,3.753,0,0,1,2.09-3.3,10.479,10.479,0,0,1,5.453-1.257,10.462,10.462,0,0,1,5.469,1.257,3.756,3.756,0,0,1,2.074,3.3v2.043Zm16.973,0V25.044a6.007,6.007,0,0,0-.11-1.179,4.711,4.711,0,0,0-.361-1.084,5.175,5.175,0,0,1,.691-.079q.346-.016.723-.016a6.751,6.751,0,0,1,3.426.754,2.247,2.247,0,0,1,1.289,1.98v1.666Zm-9.429-4.715A9.486,9.486,0,0,0,11,23.127q-1.572.754-1.572,1.917V25.2H20.745v-.189q0-1.132-1.556-1.886A9.465,9.465,0,0,0,15.087,22.372ZM4.715,21.744A2.12,2.12,0,0,1,3.159,21.1a2.2,2.2,0,0,1,0-3.112,2.12,2.12,0,0,1,1.556-.644,2.2,2.2,0,1,1,0,4.4Zm20.745,0a2.2,2.2,0,1,1,1.556-.644A2.12,2.12,0,0,1,25.459,21.744Zm-10.372-2.2a3.756,3.756,0,0,1-3.772-3.772,3.623,3.623,0,0,1,1.1-2.687A3.664,3.664,0,0,1,15.087,12a3.7,3.7,0,0,1,3.772,3.772,3.664,3.664,0,0,1-1.084,2.672A3.623,3.623,0,0,1,15.087,19.543Zm0-5.658a1.846,1.846,0,0,0-1.336.534,1.9,1.9,0,0,0,2.687,2.687,1.878,1.878,0,0,0-1.352-3.222ZM15.087,25.2ZM15.087,15.772Z" transform="translate(0 -12)" fill="#fff"/>
</svg>
