<svg xmlns="http://www.w3.org/2000/svg" width="26.854" height="20.698" viewBox="0 0 26.854 20.698">
  <g id="remove-people" transform="translate(1859 -3000.302)">
    <path id="person_FILL0_wght400_GRAD0_opsz48" d="M18.328,18.632a4.643,4.643,0,0,1-4.841-4.841A4.643,4.643,0,0,1,18.328,8.95a4.643,4.643,0,0,1,4.841,4.841,4.643,4.643,0,0,1-4.841,4.841ZM8,28.992V25.958a3.552,3.552,0,0,1,.613-2.1,3.937,3.937,0,0,1,1.581-1.323,24.259,24.259,0,0,1,4.147-1.452,16.765,16.765,0,0,1,3.986-.484,16.06,16.06,0,0,1,3.97.5,27.493,27.493,0,0,1,4.131,1.436,3.891,3.891,0,0,1,1.614,1.323,3.552,3.552,0,0,1,.613,2.1v3.034Zm1.936-1.936H26.719v-1.1a1.768,1.768,0,0,0-.307-.984,1.943,1.943,0,0,0-.758-.694,17.138,17.138,0,0,0-3.776-1.372,16.7,16.7,0,0,0-3.55-.371,17.152,17.152,0,0,0-3.582.371,16.392,16.392,0,0,0-3.776,1.372,1.942,1.942,0,0,0-1.033,1.678ZM18.328,16.7a2.815,2.815,0,0,0,2.9-2.9,2.905,2.905,0,1,0-5.809,0,2.815,2.815,0,0,0,2.9,2.9ZM18.328,13.791ZM18.328,27.056Z" transform="translate(-1867 2992.008)" fill="#fff"/>
    <g id="Group_146" data-name="Group 146">
      <line id="Line_14" data-name="Line 14" x2="8.354" transform="translate(-1840.5 3001.302)" fill="none" stroke="#fff" stroke-width="2"/>
    </g>
  </g>
</svg>
