<svg xmlns="http://www.w3.org/2000/svg" width="21.148" height="21.148" viewBox="0 0 21.148 21.148">
  <path id="settings_FILL0_wght400_GRAD0_opsz48" d="M12.142,25.148l-.529-3.331a7.083,7.083,0,0,1-1.057-.5,7.265,7.265,0,0,1-.978-.661L6.458,22.082,4,17.746l2.855-2.088a3.143,3.143,0,0,1-.066-.542q-.013-.3-.013-.542t.013-.542a3.143,3.143,0,0,1,.066-.542L4,11.4,6.458,7.066,9.578,8.494a7.265,7.265,0,0,1,.978-.661,5.47,5.47,0,0,1,1.057-.476L12.142,4h4.864l.529,3.331a8.57,8.57,0,0,1,1.071.489,4.55,4.55,0,0,1,.965.674L22.69,7.066,25.148,11.4l-2.855,2.036a3.725,3.725,0,0,1,.066.568q.013.3.013.568t-.013.555a3.681,3.681,0,0,1-.066.555l2.855,2.062L22.69,22.082,19.57,20.654a8.77,8.77,0,0,1-.965.674,4.607,4.607,0,0,1-1.071.489l-.529,3.331Zm2.432-7.138a3.43,3.43,0,0,0,3.437-3.437,3.43,3.43,0,0,0-3.437-3.437,3.43,3.43,0,0,0-3.437,3.437,3.43,3.43,0,0,0,3.437,3.437Zm0-1.586a1.85,1.85,0,1,1,1.309-.542A1.783,1.783,0,0,1,14.574,16.425ZM14.574,14.574Zm-1.163,8.988h2.326l.37-2.961a6.234,6.234,0,0,0,1.652-.661,6.775,6.775,0,0,0,1.414-1.084l2.8,1.216,1.057-1.9-2.485-1.824q.106-.449.172-.886a5.9,5.9,0,0,0,.066-.886,7.353,7.353,0,0,0-.053-.886,5.47,5.47,0,0,0-.185-.886l2.485-1.824-1.057-1.9-2.8,1.216A5.893,5.893,0,0,0,17.8,9.142a4.459,4.459,0,0,0-1.692-.595l-.37-2.961H13.411l-.37,2.961a5.6,5.6,0,0,0-1.679.634,5.831,5.831,0,0,0-1.388,1.11l-2.8-1.216-1.057,1.9L8.6,12.8q-.106.449-.172.886a5.966,5.966,0,0,0,0,1.771q.066.436.172.886L6.115,18.169l1.057,1.9,2.8-1.216a6.776,6.776,0,0,0,1.414,1.084,6.234,6.234,0,0,0,1.652.661Z" transform="translate(-4 -4)" fill="#fff"/>
</svg>
